<?xml version="1.0" standalone="no"?>
<!DOCTYPE svg PUBLIC "-//W3C//DTD SVG 20010904//EN"
 "http://www.w3.org/TR/2001/REC-SVG-20010904/DTD/svg10.dtd">
<svg version="1.0" xmlns="http://www.w3.org/2000/svg"
 width="256.000000pt" height="256.000000pt" viewBox="0 0 256.000000 256.000000"
 preserveAspectRatio="xMidYMid meet">
<metadata>
Created by potrace 1.10, written by Peter Selinger 2001-2011
</metadata>
<g transform="translate(0.000000,256.000000) scale(0.100000,-0.100000)"
fill="#000000" stroke="none">
<path d="M1360 2285 c-20 -15 -47 -25 -66 -25 -24 0 -46 -11 -79 -40 -33 -28
-55 -40 -77 -40 -36 0 -93 -35 -106 -65 -5 -11 -21 -45 -35 -75 -14 -30 -35
-77 -47 -104 -24 -56 -84 -115 -117 -116 -13 0 -23 -4 -23 -10 0 -5 -6 -10
-12 -10 -7 -1 -25 -17 -41 -38 -15 -20 -45 -59 -67 -87 -21 -27 -37 -51 -34
-54 2 -2 -4 -14 -15 -25 -24 -27 -72 -141 -95 -228 -10 -38 -22 -68 -28 -68
-5 0 -44 18 -86 39 -42 22 -98 49 -124 60 -26 12 -50 25 -53 31 -15 25 -43 29
-64 11 -29 -25 -29 -87 0 -118 l22 -22 -27 -11 c-45 -17 -61 -38 -50 -68 5
-15 13 -26 16 -25 15 5 69 -60 63 -75 -3 -8 2 -25 10 -38 17 -26 61 -32 95
-14 16 8 28 4 61 -20 26 -18 54 -30 74 -30 51 0 79 -31 99 -111 15 -56 72
-190 85 -199 4 -3 19 -26 34 -52 15 -26 33 -53 40 -60 6 -7 31 -34 54 -60 23
-25 44 -43 47 -40 3 3 6 0 6 -5 0 -14 152 -110 245 -156 80 -39 114 -47 255
-62 81 -8 61 9 -23 20 -87 10 -191 41 -276 83 -42 20 -81 41 -87 47 -7 5 -27
21 -45 35 -67 52 -123 107 -162 160 -22 30 -43 57 -46 60 -10 8 -81 150 -81
161 0 5 -9 29 -20 51 -12 26 -16 46 -11 51 13 13 31 0 31 -22 0 -23 45 -134
78 -191 128 -223 360 -378 619 -413 110 -14 279 2 382 37 168 58 312 166 419
315 42 58 103 183 105 218 1 15 8 28 15 31 14 4 29 -27 16 -37 -5 -3 -10 -15
-11 -26 -1 -11 -20 -53 -42 -93 -22 -39 -36 -72 -33 -72 4 0 -1 -5 -10 -11
-10 -5 -18 -15 -18 -21 0 -6 9 -3 20 7 11 10 17 22 14 26 -3 5 -1 9 3 9 5 0
20 25 33 55 13 30 28 55 32 55 4 0 8 8 8 18 0 10 18 36 40 57 36 35 40 44 40
87 l0 48 48 0 c57 0 82 20 82 66 -1 35 -20 63 -49 69 -42 8 -81 39 -91 73 -9
35 -4 66 11 57 14 -9 38 38 35 67 -4 37 -23 58 -52 58 -17 0 -31 12 -49 40
-14 22 -25 44 -25 50 0 31 -84 161 -148 228 -102 109 -136 142 -144 142 -5 0
-16 8 -26 18 -48 46 -271 137 -290 118 -7 -8 -6 -8 58 -30 30 -10 86 -33 124
-52 37 -19 72 -31 77 -28 5 3 8 1 7 -4 -2 -6 18 -25 43 -44 123 -88 236 -234
284 -363 10 -27 23 -56 28 -62 10 -14 1 -50 -10 -39 -3 3 -15 -1 -24 -10 -15
-14 -19 -14 -23 -3 -28 89 -41 120 -70 173 -83 147 -203 257 -361 331 -96 46
-251 83 -268 66 -6 -6 -1 -11 14 -14 239 -46 401 -134 519 -285 19 -25 45 -56
58 -69 12 -13 22 -30 22 -38 0 -7 5 -15 12 -17 17 -6 0 -28 -22 -28 -10 0 -21
-4 -25 -9 -3 -6 -67 -41 -143 -79 -132 -67 -248 -127 -417 -217 -87 -46 -268
-140 -550 -285 -170 -87 -224 -120 -198 -120 6 0 21 -19 32 -43 45 -93 170
-204 299 -267 292 -141 647 -78 870 155 37 38 79 88 94 110 37 55 88 172 88
201 0 28 16 30 48 6 l23 -18 -39 -91 c-21 -50 -60 -120 -85 -155 -46 -65 -146
-165 -196 -195 -14 -9 -30 -21 -36 -27 -11 -12 -80 -47 -130 -66 -309 -121
-658 -49 -882 181 -34 35 -71 76 -83 91 -31 41 -85 140 -105 194 -10 27 -23
55 -28 62 -7 9 -7 16 1 24 15 15 30 2 30 -28 0 -41 86 -203 146 -276 104 -123
244 -212 413 -260 110 -32 294 -31 407 1 133 37 249 103 341 196 114 114 147
161 191 269 31 77 26 114 -5 41 -66 -151 -135 -247 -248 -340 -203 -167 -495
-215 -751 -123 -94 34 -205 104 -274 172 -51 50 -138 161 -138 175 0 5 -5 11
-12 13 -16 6 -2 38 17 38 8 0 63 25 123 56 59 31 271 142 472 246 467 243 614
320 672 351 26 14 52 27 58 29 21 7 -44 112 -111 178 -79 79 -155 131 -252
171 -78 33 -197 60 -227 52 -17 -5 -18 1 -16 59 2 50 5 62 17 59 7 -3 37 -6
64 -8 43 -2 46 -1 21 7 -16 5 -33 7 -37 5 -4 -3 -9 1 -12 9 -6 15 48 60 62 52
4 -3 17 2 29 10 43 30 16 84 -42 84 -35 0 -56 15 -56 40 0 20 -71 90 -91 90
-8 0 -30 -11 -49 -25z m70 -19 c0 -8 -5 -18 -10 -21 -6 -4 -7 -11 -4 -17 4 -6
10 -6 17 1 22 22 40 13 34 -18 -5 -23 0 -34 24 -55 28 -25 32 -26 58 -13 33
16 57 7 48 -17 -5 -12 -14 -15 -32 -10 -19 5 -32 1 -49 -15 -13 -13 -40 -23
-62 -25 -22 -2 -43 -4 -48 -5 -5 -1 -4 -7 2 -13 6 -7 12 -53 13 -103 3 -73 1
-90 -11 -90 -11 0 -14 17 -11 91 2 73 -1 93 -13 104 -14 11 -16 10 -10 -5 4
-10 1 -21 -7 -26 -10 -6 -10 -9 -1 -9 6 0 12 -7 12 -15 0 -25 -15 -17 -73 41
l-57 55 0 -46 c0 -42 2 -45 19 -36 10 6 21 7 25 4 13 -13 5 -30 -20 -42 -22
-10 -25 -16 -21 -41 4 -16 2 -32 -4 -36 -6 -4 -6 -11 2 -20 10 -13 15 -11 33
8 12 13 21 36 21 53 0 28 3 30 37 32 l38 2 -6 -68 c-4 -45 -2 -71 5 -75 6 -4
11 -2 11 3 0 6 6 11 13 11 18 0 57 -54 57 -79 0 -11 11 -28 25 -37 23 -15 25
-21 20 -67 -4 -43 -11 -58 -46 -93 -31 -32 -40 -48 -36 -64 5 -20 -16 -40 -29
-27 -11 10 9 57 36 86 20 20 25 31 16 34 -9 4 -12 20 -9 54 4 40 1 51 -16 67
-12 11 -21 28 -21 39 0 11 -8 29 -17 40 -12 12 -20 42 -23 83 -3 36 -9 65 -14
67 -13 3 -26 -52 -14 -59 5 -3 7 -18 3 -31 -4 -18 0 -32 15 -48 11 -12 23 -32
25 -45 2 -13 14 -33 25 -45 32 -34 29 -133 -6 -174 -23 -27 -25 -36 -20 -96 4
-46 2 -65 -6 -65 -7 0 -3 -6 8 -14 19 -14 19 -15 0 -22 -12 -5 -21 -3 -23 3
-2 6 -13 21 -24 34 -14 17 -19 37 -19 84 0 53 4 65 25 85 21 20 25 33 25 78 0
43 -5 62 -25 88 -14 18 -25 42 -25 53 0 33 -15 32 -17 -2 -2 -21 4 -35 17 -44
17 -12 20 -26 20 -87 0 -60 -3 -76 -20 -91 -16 -15 -20 -31 -20 -85 0 -58 3
-70 25 -90 29 -27 33 -53 8 -48 -10 2 -17 11 -15 19 1 9 -7 24 -18 34 -29 26
-29 144 0 170 16 15 20 31 20 87 0 44 -4 67 -10 63 -5 -3 -10 -34 -10 -69 0
-50 -4 -67 -20 -81 -28 -26 -29 -139 -1 -169 25 -27 32 -81 11 -81 -11 0 -14
9 -12 31 2 20 -4 36 -18 49 -16 15 -20 30 -20 85 0 38 5 71 12 78 9 9 8 12 -6
12 -14 0 -16 5 -11 29 5 25 2 33 -19 46 -28 19 -35 45 -11 45 8 0 15 -5 15
-12 0 -6 3 -8 7 -5 3 4 8 44 10 89 2 45 8 87 14 95 8 9 8 13 1 13 -6 0 -18 3
-27 6 -13 5 -15 2 -9 -20 5 -20 3 -26 -11 -26 -13 0 -16 6 -11 23 3 12 6 28 6
35 0 6 8 12 18 12 14 0 18 8 19 35 1 20 7 42 13 50 10 12 9 15 -4 15 -26 0
-29 -3 -32 -39 -2 -19 -13 -44 -24 -57 -27 -27 -23 -66 8 -79 23 -10 29 -29
13 -40 -6 -3 -14 2 -19 11 -8 15 -11 14 -17 -6 -6 -19 -2 -28 19 -45 29 -23
34 -45 11 -45 -8 0 -15 5 -15 11 0 8 -4 8 -15 -1 -12 -10 -19 -7 -39 17 -21
23 -25 38 -26 92 0 49 -5 70 -19 85 -10 12 -22 36 -26 54 -6 29 -5 33 12 30
14 -2 17 -11 15 -34 -2 -20 3 -36 17 -49 17 -15 21 -30 21 -85 0 -48 4 -71 15
-80 19 -15 32 -6 18 12 -19 24 -22 58 -6 67 11 6 12 10 4 15 -19 12 -12 46 14
78 19 22 23 34 15 47 -6 12 -5 22 1 28 21 21 -9 23 -35 2 -19 -15 -26 -29 -24
-47 2 -19 -2 -27 -12 -27 -23 0 -13 52 17 92 20 26 29 31 39 22 17 -14 16 -14
19 34 2 30 11 48 43 80 49 50 100 74 109 51 5 -13 8 -12 25 3 11 10 25 27 30
38 11 19 10 19 -9 3 -11 -11 -36 -18 -58 -18 -31 0 -46 -8 -86 -45 -43 -40
-53 -45 -96 -45 -34 0 -44 -3 -33 -10 8 -5 25 -7 37 -3 36 8 27 -12 -27 -67
-50 -49 -70 -61 -70 -39 0 5 -4 8 -9 5 -12 -8 -19 -65 -9 -68 5 -2 5 -29 0
-63 -7 -40 -6 -62 0 -66 6 -4 8 -18 5 -31 -5 -20 2 -33 38 -68 40 -40 45 -49
45 -90 0 -38 5 -51 30 -75 34 -33 39 -27 10 13 -25 34 -31 77 -10 77 10 0 14
-8 12 -27 -2 -20 4 -32 23 -44 26 -17 33 -40 13 -46 -7 -3 -8 -9 -3 -18 5 -8
8 -30 6 -48 -2 -25 4 -41 22 -61 26 -27 37 -76 23 -99 -14 -23 -27 -1 -20 34
5 28 2 40 -17 60 -15 16 -23 38 -25 65 -1 33 -10 49 -43 83 -36 36 -41 47 -41
87 0 39 -5 50 -39 83 -22 21 -42 50 -46 63 -3 14 -13 32 -21 41 -14 14 -21 10
-70 -39 -46 -46 -55 -61 -58 -99 -4 -36 0 -49 19 -72 13 -16 22 -35 19 -42 -3
-8 -1 -17 5 -20 5 -4 13 3 16 15 5 14 0 28 -14 43 -16 16 -21 35 -21 72 0 46
4 53 45 94 24 24 48 40 52 36 5 -5 2 -11 -6 -14 -7 -2 -9 -7 -4 -11 6 -3 31
-30 56 -59 40 -45 47 -59 47 -95 0 -37 6 -49 40 -82 33 -33 40 -46 40 -79 0
-25 7 -47 19 -60 25 -29 38 -136 16 -136 -13 0 -15 9 -9 48 5 42 3 50 -20 71
-21 20 -26 34 -26 71 0 40 -5 51 -40 85 -34 33 -40 45 -40 80 0 31 -7 48 -30
73 -18 20 -30 27 -30 19 0 -8 7 -20 15 -27 9 -7 15 -29 15 -54 0 -36 6 -48 45
-86 40 -39 45 -49 45 -89 0 -30 6 -52 19 -65 12 -14 20 -42 24 -84 5 -55 3
-63 -11 -60 -14 3 -16 14 -14 63 3 51 0 63 -17 79 -16 14 -21 31 -21 65 0 42
-4 51 -45 91 -42 41 -45 48 -40 81 4 21 2 40 -3 43 -12 7 -23 -19 -16 -38 3
-8 0 -17 -6 -21 -7 -4 7 -26 39 -60 45 -47 51 -59 51 -96 0 -28 7 -50 19 -63
26 -28 35 -161 11 -161 -12 0 -14 13 -12 70 3 61 1 73 -17 89 -15 14 -21 31
-21 61 0 33 -6 47 -30 70 -16 16 -30 24 -30 18 0 -6 7 -16 15 -23 9 -7 15 -29
15 -53 0 -30 7 -48 24 -66 21 -23 25 -37 27 -106 2 -65 -1 -81 -13 -83 -13 -2
-14 9 -10 73 4 70 3 78 -23 114 -19 28 -26 49 -23 72 4 41 -38 78 -68 60 -20
-11 -16 -13 31 -15 17 -1 20 -7 17 -44 -3 -33 1 -49 16 -65 17 -18 21 -38 22
-117 3 -116 3 -117 -12 -102 -24 24 -108 -45 -108 -90 0 -18 -5 -28 -15 -28
-26 0 -16 39 21 80 30 33 33 40 18 41 -48 3 -81 -4 -100 -22 -11 -10 -31 -19
-44 -19 -15 0 -40 -16 -65 -39 -49 -49 -89 -61 -104 -33 -6 11 -8 22 -5 25 3
3 -4 3 -16 0 -13 -3 -25 -14 -27 -25 -3 -10 -9 -18 -14 -18 -5 0 -6 -7 -3 -15
9 -24 21 -18 34 18 l13 32 7 -30 c3 -16 3 -35 -2 -41 -4 -6 -2 -16 4 -22 9 -9
9 -15 0 -24 -8 -8 -22 1 -57 40 -44 49 -50 52 -96 52 -27 0 -49 5 -49 10 0 6
-11 15 -25 20 -16 6 -23 14 -19 25 9 21 19 19 38 -10 13 -20 25 -25 59 -25 24
0 49 -6 55 -12 10 -10 15 -10 22 2 14 23 2 30 -59 30 -50 0 -61 4 -86 30 -26
27 -29 28 -41 13 -10 -14 -15 -15 -27 -5 -9 8 -18 9 -21 3 -4 -5 -2 -12 4 -16
24 -15 9 -32 -29 -32 -42 0 -64 23 -33 34 22 8 63 51 54 57 -4 2 -27 0 -52 -4
-45 -9 -68 -1 -56 19 9 14 107 2 127 -15 30 -26 33 -14 4 16 -24 25 -35 29
-57 25 -21 -5 -28 -3 -28 9 0 13 -3 13 -28 0 -38 -20 -64 -18 -60 4 3 12 12
16 34 14 20 -2 36 4 49 18 10 11 26 20 36 20 10 0 21 5 24 10 3 6 -3 10 -15
10 -11 0 -35 10 -53 22 -18 13 -34 24 -36 26 -3 1 1 8 7 14 8 8 8 15 1 24 -6
7 -8 18 -4 24 11 17 30 11 40 -12 6 -14 21 -24 36 -26 15 -2 37 -14 50 -28 12
-13 33 -24 46 -24 13 0 32 -9 43 -20 11 -11 31 -20 43 -20 13 0 32 -9 42 -20
10 -11 27 -20 38 -20 12 0 32 -10 45 -22 13 -13 33 -23 45 -23 12 0 23 -4 24
-10 3 -17 -45 -8 -76 14 -16 12 -38 21 -48 21 -11 0 -28 9 -38 20 -10 11 -28
20 -40 20 -12 0 -30 9 -40 20 -10 11 -27 20 -38 20 -10 0 -32 11 -49 25 -16
14 -36 25 -43 25 -7 0 -22 3 -32 7 -17 6 -17 5 1 -15 11 -12 28 -22 38 -22 28
0 73 -38 73 -62 0 -13 7 -22 19 -24 10 -1 28 -12 40 -23 12 -12 31 -21 41 -21
10 0 29 -9 41 -21 15 -14 29 -19 43 -14 27 8 18 25 -13 25 -13 0 -31 9 -41 20
-10 11 -28 20 -40 20 -13 0 -28 7 -35 15 -7 8 -19 15 -26 15 -8 0 -14 9 -14
20 0 27 14 25 34 -5 9 -14 26 -25 37 -25 12 0 34 -11 51 -25 16 -14 38 -25 48
-25 10 0 22 -5 25 -11 15 -23 57 -30 81 -14 19 12 24 24 24 58 0 39 6 47 83
125 45 47 73 80 62 74 -11 -6 -53 -44 -94 -85 -59 -60 -72 -79 -66 -96 4 -15
1 -23 -10 -27 -23 -9 -27 -1 -18 34 12 44 181 217 198 202 9 -8 14 -7 18 4 4
9 2 18 -4 21 -5 4 -7 11 -4 16 11 16 30 10 40 -13 8 -18 18 -23 45 -23 33 0
35 -2 35 -35 l0 -35 -50 3 c-50 3 -51 3 -113 -61 -57 -60 -62 -69 -62 -111 0
-24 -4 -48 -10 -51 -5 -3 -15 -16 -21 -28 -8 -15 1 -10 28 16 21 20 49 37 60
37 12 0 24 4 27 9 8 13 -18 21 -44 14 -21 -5 -22 -3 -15 28 4 20 24 52 50 78
39 40 48 44 87 43 61 -3 103 7 89 21 -6 6 -11 30 -11 54 0 41 -1 43 -25 37
-18 -4 -25 -2 -25 9 0 8 -7 17 -15 21 -8 3 -15 18 -15 34 0 17 -10 37 -24 51
-26 24 -39 68 -24 77 5 3 3 13 -4 22 -11 13 -10 16 2 20 21 7 120 103 120 116
-1 6 -16 -6 -34 -26 -32 -36 -46 -40 -46 -11 0 7 5 13 12 13 24 0 78 63 78 90
0 15 9 35 20 45 11 10 20 27 20 38 0 10 11 32 25 49 18 21 23 36 19 54 -4 17
-2 24 9 24 8 0 20 7 27 15 7 9 29 15 54 15 36 0 48 6 86 45 38 39 49 44 94 47
42 2 53 7 61 26 11 24 45 30 45 8z m-350 -449 c0 -66 2 -73 32 -104 18 -18 38
-33 45 -33 7 0 13 -7 13 -15 0 -27 -22 -16 -64 32 -38 43 -42 52 -47 117 -6
74 -4 90 12 81 5 -4 9 -38 9 -78z m458 58 c165 -34 293 -105 405 -225 77 -81
103 -123 84 -137 -6 -6 -106 -59 -222 -118 -115 -59 -228 -118 -250 -130 -22
-12 -121 -64 -220 -115 -362 -187 -451 -233 -500 -260 -87 -48 -92 -48 -115 4
-10 25 -22 62 -26 83 -4 21 -11 43 -16 50 -5 7 -5 14 2 18 14 8 32 -4 27 -18
-4 -11 14 -82 34 -134 l9 -24 163 84 c363 189 464 242 499 264 21 13 42 23 47
23 5 0 63 29 128 63 65 35 187 99 271 142 83 44 152 83 152 89 0 20 -84 117
-143 166 -111 90 -286 165 -372 158 -31 -2 -40 1 -43 15 -4 21 -1 21 86 2z
m20 -46 c57 -11 171 -60 232 -99 45 -29 190 -173 190 -189 0 -3 -19 -16 -42
-28 -24 -12 -171 -89 -328 -171 -157 -82 -352 -184 -435 -227 -82 -42 -205
-107 -273 -142 -67 -36 -129 -63 -136 -60 -12 5 -27 50 -41 125 -5 25 -3 32 9
32 10 0 14 -9 14 -27 0 -16 5 -47 11 -71 l12 -42 152 77 c84 42 154 79 157 82
3 3 84 46 180 95 96 49 291 149 433 223 l257 135 -17 30 c-28 47 -148 143
-227 181 -79 39 -186 70 -209 61 -17 -6 -31 11 -22 27 4 6 14 7 24 3 9 -3 35
-10 59 -15z m-715 -41 c2 -7 -13 -28 -35 -46 -47 -42 -118 -139 -157 -218 -36
-73 -73 -197 -65 -217 6 -18 -11 -31 -31 -23 -13 5 -13 10 -1 38 8 18 26 68
39 111 32 97 80 184 146 262 28 33 56 70 63 83 12 24 34 29 41 10z m768 -21
c52 -19 118 -48 145 -67 57 -38 154 -129 154 -145 0 -6 -46 -34 -102 -62 -125
-64 -402 -207 -558 -290 -244 -129 -449 -233 -459 -233 -5 0 -12 19 -16 43 -4
23 -12 48 -18 55 -13 16 5 37 26 29 9 -3 13 -14 10 -31 -3 -14 -2 -37 1 -50
l6 -25 148 76 c81 41 183 94 227 118 44 23 166 86 270 140 233 120 370 192
413 217 l33 20 -24 22 c-58 53 -117 97 -169 124 -67 36 -160 64 -181 56 -17
-6 -31 11 -22 26 9 14 9 14 116 -23z m36 -58 c17 -6 37 -17 44 -25 11 -13 3
-15 -62 -12 -73 3 -74 3 -77 31 -3 28 -2 29 30 22 18 -3 47 -11 65 -16z m-833
-17 c3 -5 -6 -19 -20 -31 -55 -48 -151 -235 -157 -305 -2 -20 -9 -32 -20 -34
-16 -3 -24 18 -11 31 4 3 17 35 29 71 26 74 73 163 116 217 16 20 29 42 29 48
0 13 26 15 34 3z m6 -61 c0 -6 -12 -23 -26 -38 -31 -33 -108 -189 -100 -202 3
-5 -1 -14 -8 -20 -23 -19 -30 6 -12 43 9 18 19 42 23 52 23 56 96 174 109 174
8 0 14 -4 14 -9z m730 -19 c0 -21 -14 -42 -54 -82 -30 -30 -53 -57 -50 -59 2
-3 33 23 67 56 57 57 66 62 111 64 41 3 50 0 56 -16 10 -26 -6 -45 -36 -45
-12 0 -26 -4 -29 -10 -3 -5 1 -10 11 -10 11 0 15 -6 11 -20 -4 -17 0 -17 53
10 32 16 61 34 65 40 9 14 35 13 34 -2 0 -7 -48 -36 -107 -65 -177 -86 -706
-364 -725 -381 -13 -11 -21 -12 -28 -5 -13 13 -4 33 14 33 11 0 664 334 676
346 2 2 -2 11 -9 19 -12 14 -17 12 -45 -15 -17 -16 -39 -30 -50 -30 -10 0 -28
-9 -39 -19 -12 -10 -35 -22 -53 -26 -31 -6 -32 -6 -30 27 2 26 16 46 70 97 60
58 67 68 62 93 -5 21 -3 28 9 28 11 0 16 -9 16 -28z m186 -3 c11 -10 30 -19
41 -19 11 0 31 -9 44 -19 23 -18 23 -20 5 -27 -12 -5 -21 -2 -28 9 -5 10 -19
17 -32 17 -13 0 -31 9 -42 21 -16 18 -28 20 -86 17 -37 -1 -70 0 -73 4 -17 17
9 23 77 20 54 -3 78 -9 94 -23z m-896 -21 c-1 -7 -14 -29 -30 -48 -17 -19 -30
-42 -30 -52 0 -17 -20 -25 -33 -12 -3 3 10 27 29 54 19 26 34 52 34 59 0 6 7
11 15 11 8 0 15 -6 15 -12z m878 -33 c0 -22 -5 -35 -13 -35 -13 0 -19 54 -8
73 9 16 21 -5 21 -38z m-850 -12 c2 -8 -5 -13 -17 -13 -12 0 -21 6 -21 16 0
18 31 15 38 -3z m1258 -81 c1 -11 11 -40 22 -63 13 -26 18 -47 13 -52 -14 -14
-31 1 -31 26 0 13 -9 40 -20 61 -19 39 -18 60 3 53 7 -2 12 -13 13 -25z m-36
-39 c7 -21 19 -49 27 -62 10 -15 12 -26 5 -33 -16 -16 -29 -2 -36 39 -12 73
-7 74 -222 -37 -110 -57 -228 -119 -264 -138 -36 -19 -139 -73 -230 -119 -91
-47 -212 -110 -270 -141 -58 -30 -147 -77 -199 -104 -52 -26 -97 -50 -99 -53
-10 -10 111 -145 170 -190 243 -184 587 -195 833 -27 72 50 160 138 205 207
47 73 94 191 79 201 -6 3 -13 -5 -16 -17 -4 -13 -26 -62 -49 -109 -200 -399
-724 -504 -1064 -214 -67 57 -127 132 -114 143 8 8 192 106 495 264 70 36 135
70 145 76 58 32 564 291 568 291 3 0 6 -6 6 -12 0 -7 7 -26 15 -42 10 -18 12
-33 6 -39 -14 -14 -28 0 -28 28 0 14 -3 29 -7 32 -5 6 -100 -41 -331 -162 -44
-23 -154 -80 -245 -128 -91 -47 -221 -115 -290 -152 -69 -36 -167 -87 -217
-112 -51 -26 -93 -52 -93 -58 0 -14 75 -92 131 -138 58 -47 178 -102 266 -123
99 -23 254 -15 351 19 143 51 264 142 346 261 42 60 86 162 89 203 3 30 24 42
33 19 3 -8 12 -12 19 -10 17 7 29 -13 17 -29 -5 -7 -19 -40 -32 -75 -36 -100
-85 -171 -175 -258 -98 -95 -201 -152 -335 -185 -71 -18 -103 -21 -205 -16
-185 8 -318 61 -454 182 -65 57 -141 151 -141 174 0 6 17 19 38 29 20 10 93
48 162 84 69 36 193 100 275 143 83 43 191 99 240 125 50 26 178 93 285 148
107 56 215 112 240 126 25 13 48 25 52 25 3 1 12 -16 18 -36z m233 -67 c-4 -6
-6 -22 -4 -34 2 -22 0 -23 -26 -18 -24 6 -34 1 -65 -31 -30 -31 -37 -47 -40
-82 -2 -36 2 -47 20 -59 12 -8 22 -21 22 -28 0 -23 -15 -16 -39 17 -19 25 -22
41 -19 85 1 30 1 54 -2 54 -17 0 -30 -29 -30 -66 0 -33 5 -47 23 -59 12 -8 22
-25 22 -37 0 -22 10 -24 165 -19 32 1 43 21 12 21 -10 0 -23 5 -30 12 -9 9
-12 8 -12 -4 0 -13 -8 -16 -35 -15 -19 2 -35 6 -35 10 0 4 0 12 0 18 0 6 7 9
15 5 8 -3 23 -2 33 2 11 4 -2 9 -38 12 -70 6 -68 26 3 21 37 -2 55 -9 65 -23
10 -13 23 -18 45 -16 29 3 31 1 33 -32 2 -36 -12 -54 -31 -42 -12 8 -134 12
-152 5 -11 -4 -9 -11 8 -29 12 -13 28 -24 34 -24 8 0 12 -16 12 -40 0 -41 0
-41 -31 -34 -19 4 -57 31 -98 70 -36 35 -71 64 -76 64 -6 0 -23 -10 -39 -23
-31 -26 -98 -36 -90 -15 2 7 15 13 30 13 14 0 29 3 33 8 4 4 2 7 -4 7 -20 0
-13 20 16 45 30 27 53 31 83 15 21 -12 26 -1 7 18 -19 19 -63 14 -83 -8 -12
-14 -31 -20 -58 -20 -26 0 -48 -7 -61 -19 -16 -15 -41 -21 -98 -25 -93 -6
-100 5 -33 52 25 17 45 36 45 42 0 15 -11 12 -25 -7 -7 -9 -17 -13 -23 -9 -17
10 -15 36 3 36 22 0 176 78 203 103 l23 21 6 -23 c5 -20 11 -22 52 -19 36 2
46 0 46 -12 0 -12 -10 -14 -46 -12 -26 2 -50 -1 -54 -7 -3 -6 -1 -11 4 -11 6
0 11 -7 11 -15 0 -18 -26 -20 -33 -2 -3 9 -7 9 -17 0 -7 -6 -19 -9 -27 -6 -16
6 -93 -63 -93 -84 0 -7 -7 -13 -15 -13 -8 0 -15 4 -15 9 0 18 95 101 116 101
11 0 31 11 44 25 31 33 24 32 -64 -12 -45 -22 -72 -41 -69 -49 2 -6 -14 -29
-37 -50 l-41 -39 38 2 c21 1 49 2 62 2 24 1 24 1 5 16 -18 14 -18 15 11 39 22
18 42 25 74 26 30 0 51 6 66 20 28 26 85 38 85 18 0 -23 -11 -28 -32 -17 -16
9 -25 6 -47 -15 -20 -19 -38 -26 -68 -26 -39 0 -82 -24 -68 -38 3 -3 11 0 17
6 7 7 31 12 53 12 29 0 47 6 60 20 21 24 67 26 85 5 7 -8 17 -15 22 -15 7 0 7
5 0 13 -18 21 -12 94 9 113 21 19 27 43 7 27 -7 -6 -35 -13 -61 -16 -39 -4
-50 -1 -55 12 -3 9 -10 19 -16 23 -6 4 -81 -29 -166 -74 -85 -44 -216 -112
-290 -151 -223 -115 -318 -165 -478 -250 l-153 -82 65 -62 c118 -112 237 -157
416 -157 98 0 127 4 195 27 103 34 184 87 265 173 68 73 140 200 140 248 0 16
5 26 15 26 20 0 19 -6 -9 -76 -81 -197 -217 -326 -412 -390 -76 -25 -104 -29
-194 -28 -146 1 -260 35 -374 112 -33 23 -136 122 -136 131 0 3 57 35 127 71
70 36 226 117 347 181 604 316 656 341 663 322 9 -26 23 -33 65 -33 27 0 41 6
50 20 8 12 24 20 39 20 14 0 36 11 48 24 26 27 59 37 78 23 7 -5 10 -14 6 -21z
m-46 -136 c0 -40 0 -40 -34 -36 -40 5 -48 10 -38 26 4 6 15 8 26 5 17 -6 19
-3 13 19 -5 21 -3 26 14 26 16 0 19 -7 19 -40z m-556 -113 c-6 -6 -18 -12 -26
-13 -21 -3 -518 -265 -526 -277 -10 -15 -40 0 -33 16 2 8 19 18 37 23 45 12
501 250 517 269 10 12 16 13 27 4 9 -8 11 -15 4 -22z m-876 -24 c-1 -20 -7
-39 -13 -41 -16 -5 -16 65 1 71 6 3 13 6 13 6 1 1 1 -16 -1 -36z m1135 -19 c0
-12 -6 -15 -26 -10 -21 6 -33 1 -53 -18 -22 -20 -38 -25 -96 -28 -58 -2 -70 0
-73 13 -2 14 7 15 70 11 67 -4 75 -2 95 20 27 29 83 37 83 12z m-297 -10 c3
-4 1 -16 -4 -27 -14 -24 3 -67 26 -67 8 0 15 -5 15 -11 0 -8 4 -8 13 -1 7 6
23 9 36 5 14 -4 29 1 44 15 14 13 39 21 72 24 l50 3 0 -35 0 -35 -50 3 c-41 3
-54 0 -69 -17 -14 -16 -31 -21 -66 -21 -38 0 -51 5 -75 30 -16 16 -31 28 -34
25 -2 -3 13 -23 34 -45 46 -47 94 -54 131 -19 29 27 114 38 114 14 0 -14 -7
-16 -39 -10 -24 4 -42 2 -46 -4 -3 -6 -1 -11 4 -11 19 0 12 -20 -16 -45 -21
-18 -40 -24 -73 -25 -43 0 -49 4 -112 68 -56 57 -67 73 -70 107 -2 30 1 40 12
40 12 0 14 -10 12 -43 -4 -43 -4 -44 15 -25 11 10 16 23 12 28 -4 6 -9 21 -11
35 -2 18 2 26 15 28 16 3 18 -1 13 -25 -5 -23 -1 -34 24 -58 30 -29 42 -26 16
4 -20 24 -30 101 -13 101 8 0 17 -3 20 -6z m-1015 -46 c0 -35 22 -109 42 -145
10 -17 16 -34 13 -37 -12 -12 -33 -6 -33 9 0 17 -38 142 -50 166 -5 10 -4 21
2 27 15 15 25 7 26 -20z m879 -35 c-5 -24 4 -37 64 -96 56 -56 68 -72 58 -83
-10 -12 -1 -14 57 -14 63 0 70 2 101 32 18 18 33 38 33 45 0 14 26 18 34 5 2
-4 -20 -29 -49 -55 -52 -45 -56 -47 -117 -47 l-63 0 -94 94 c-67 68 -92 99
-87 111 7 20 26 11 26 -13 0 -10 32 -49 70 -87 39 -38 70 -65 70 -60 0 5 -27
37 -59 70 -62 64 -90 125 -56 125 14 0 16 -6 12 -27z m447 18 c4 -5 -15 -51
-41 -103 -82 -162 -226 -280 -394 -324 -101 -27 -236 -22 -333 10 -43 15 -99
38 -123 52 -42 25 -68 56 -57 67 3 2 49 3 102 0 86 -4 100 -8 123 -30 17 -16
29 -21 34 -14 4 7 21 9 45 5 21 -3 46 -1 56 5 15 8 4 10 -50 11 -59 0 -72 4
-99 26 -29 25 -36 26 -100 21 -61 -5 -68 -4 -65 11 2 10 11 16 23 14 11 -1 44
-4 74 -7 36 -2 60 -10 75 -24 18 -17 35 -21 88 -21 52 0 68 -4 83 -20 19 -21
89 -28 100 -10 4 6 -10 10 -35 10 -30 0 -51 7 -72 25 -25 21 -40 25 -92 25
-50 0 -67 4 -81 20 -13 14 -31 20 -64 20 -56 1 -112 38 -88 58 12 10 18 7 31
-13 13 -20 25 -25 59 -25 33 0 49 -6 67 -25 20 -22 32 -25 90 -25 54 0 70 -4
85 -20 13 -14 31 -20 60 -20 26 0 48 -6 55 -15 7 -8 20 -15 29 -15 11 1 5 10
-19 30 -26 23 -44 30 -76 30 -28 0 -46 6 -59 20 -15 16 -31 20 -85 20 -54 0
-70 4 -85 20 -11 13 -25 18 -37 14 -13 -4 -18 0 -18 15 0 25 22 28 40 6 11
-13 15 -13 21 -3 10 15 150 12 160 -4 3 -5 9 -2 13 7 4 10 12 15 22 11 9 -3
12 -2 9 5 -4 6 -42 9 -93 8 -70 -2 -88 1 -90 13 -2 12 12 14 85 10 55 -3 94
-9 104 -18 30 -27 33 -14 3 17 -26 28 -33 30 -72 24 -37 -6 -43 -4 -40 10 1 9
6 16 11 16 4 -1 21 -1 39 -1 26 0 48 -17 144 -111 91 -91 116 -110 133 -104
28 8 46 -2 31 -19 -19 -24 -57 -4 -130 69 -66 67 -75 72 -87 57 -9 -12 -15
-14 -20 -5 -6 8 -13 8 -27 -3 -18 -13 -16 -14 29 -14 43 0 53 -4 99 -47 39
-37 51 -55 51 -78 0 -26 -3 -30 -33 -31 -21 -1 -36 4 -42 15 -9 15 -9 14 -10
-1 0 -15 -7 -17 -47 -12 -27 3 -53 7 -60 9 -7 2 -15 0 -18 -4 -2 -5 -24 -6
-49 -4 -26 3 -46 1 -50 -6 -9 -14 34 -16 119 -8 11 1 21 -5 23 -14 2 -14 -7
-15 -75 -11 -65 3 -82 8 -104 28 -14 13 -29 21 -33 17 -4 -4 -23 -8 -42 -10
-28 -1 -34 2 -34 18 0 15 5 18 24 13 14 -3 27 -1 31 6 5 9 -11 11 -61 9 -38
-2 -75 0 -81 4 -7 5 -13 4 -13 -2 0 -16 112 -69 178 -86 147 -36 274 -23 412
42 126 60 283 241 294 341 2 15 4 28 5 30 3 6 20 1 25 -7z m-526 -47 c5 -9 54
-61 108 -116 l99 -100 53 6 c42 5 52 3 52 -9 0 -12 -11 -14 -62 -9 l-63 7
-110 106 c-60 58 -112 107 -114 108 -6 3 10 23 19 23 5 0 13 -7 18 -16z m-398
-176 c0 -16 -50 -68 -66 -68 -17 0 -34 24 -26 36 7 10 71 43 85 44 4 0 7 -5 7
-12z"/>
<path d="M1410 2203 c-8 -3 -26 -17 -39 -29 -20 -20 -21 -24 -6 -24 9 0 19 9
22 20 6 21 28 27 38 11 3 -6 -3 -15 -14 -21 -30 -15 -44 -47 -32 -68 9 -14 11
-12 17 14 5 25 12 33 37 38 24 5 28 9 19 18 -7 7 -12 20 -12 30 0 19 -5 20
-30 11z"/>
<path d="M1241 2126 c-36 -36 -42 -49 -39 -77 4 -47 22 -43 28 6 3 23 15 54
27 70 18 25 24 28 35 17 10 -10 10 -15 1 -20 -9 -6 -4 -18 18 -45 37 -45 51
-43 18 2 -19 26 -21 35 -11 55 9 20 8 25 -4 30 -25 10 -28 8 -73 -38z"/>
<path d="M1337 2133 c-11 -11 -8 -40 6 -51 10 -9 13 -5 11 19 -2 33 -7 42 -17
32z"/>
<path d="M1448 2123 c-42 -6 -34 -19 13 -20 34 -2 39 0 29 12 -7 8 -13 14 -14
14 0 -1 -13 -4 -28 -6z"/>
<path d="M1078 2078 c-6 -16 1 -38 12 -38 15 0 19 28 6 40 -10 8 -15 7 -18 -2z"/>
<path d="M997 1924 c-4 -4 -7 -17 -7 -29 0 -11 -5 -26 -12 -33 -9 -9 -8 -12 5
-12 9 0 17 -5 17 -11 0 -5 5 -7 10 -4 11 7 12 51 1 78 -3 10 -10 15 -14 11z"/>
<path d="M1270 1855 c-19 -20 -22 -32 -18 -69 3 -24 1 -49 -4 -54 -12 -12 4
-23 20 -13 8 5 9 16 2 41 -6 22 -6 38 1 46 7 8 6 14 -1 19 -9 5 -9 10 -1 18
14 14 60 -38 61 -67 0 -11 10 -30 21 -42 32 -34 33 -138 2 -178 -18 -22 -23
-42 -23 -87 0 -60 13 -86 24 -46 3 12 6 45 6 73 0 38 5 55 20 69 16 14 20 31
20 80 0 49 -4 66 -20 80 -11 10 -20 27 -20 38 0 12 -9 31 -21 43 -18 19 -25
36 -28 67 -2 14 -18 7 -41 -18z"/>
<path d="M1408 1808 c7 -7 12 -24 12 -38 0 -15 9 -35 20 -45 13 -12 20 -31 20
-56 0 -21 4 -40 9 -44 14 -8 21 9 11 25 -5 9 -5 19 1 26 7 8 2 21 -16 42 -14
16 -25 39 -25 50 0 19 -24 52 -38 52 -3 0 -1 -5 6 -12z"/>
<path d="M941 1743 c-12 -13 -12 -16 0 -24 28 -18 44 -4 25 22 -10 14 -13 15
-25 2z"/>
<path d="M909 1703 c-5 -39 6 -91 22 -109 10 -11 19 -28 19 -37 0 -19 8 -21
28 -9 9 6 4 16 -18 37 -24 23 -30 37 -30 71 0 24 -4 46 -10 49 -5 3 -10 3 -11
-2z"/>
<path d="M950 1661 c0 -22 4 -42 9 -45 5 -3 8 8 7 25 -1 19 3 33 12 36 11 5
11 7 0 14 -23 15 -28 10 -28 -30z"/>
<path d="M1253 1680 c3 -12 -1 -24 -11 -29 -14 -8 -15 -12 -4 -22 6 -7 12 -21
12 -30 0 -10 5 -21 10 -24 6 -4 10 18 10 59 0 42 -4 66 -11 66 -6 0 -9 -9 -6
-20z"/>
<path d="M782 1366 c-86 -85 -92 -94 -92 -131 0 -23 -5 -46 -12 -53 -9 -9 -9
-12 1 -12 23 0 40 33 41 75 0 37 7 47 68 108 59 59 72 67 105 67 20 0 37 5 37
10 0 6 -8 10 -18 10 -10 0 -22 4 -27 9 -6 5 -46 -27 -103 -83z"/>
<path d="M1000 1361 c0 -6 -25 -8 -67 -4 -65 5 -69 4 -103 -26 -19 -17 -29
-31 -21 -31 8 0 19 6 25 14 7 10 36 16 86 18 l75 3 0 -55 0 -55 -70 3 c-61 3
-73 1 -89 -17 -11 -12 -29 -21 -41 -21 -21 0 -104 -75 -94 -85 3 -3 18 9 34
25 16 17 38 30 49 30 11 0 29 9 41 20 17 16 39 21 106 24 l84 4 1 76 c0 43 -4
79 -8 82 -4 3 -8 1 -8 -5z"/>
<path d="M843 1298 c-23 -30 -26 -43 -6 -25 14 12 37 17 76 17 31 0 59 5 62
10 9 15 -120 13 -132 -2z"/>
<path d="M316 1271 c-4 -6 -20 -8 -38 -4 -22 4 -29 3 -24 -5 4 -7 15 -12 25
-12 9 0 21 -4 27 -9 12 -13 34 13 24 29 -5 8 -10 9 -14 1z"/>
<path d="M842 1258 c-7 -7 -12 -16 -12 -22 0 -6 5 -5 12 2 7 7 39 12 76 12 39
0 61 4 57 10 -9 14 -119 12 -133 -2z"/>
<path d="M342 1222 c-9 -7 -8 -13 8 -27 18 -16 20 -16 20 -2 0 10 8 17 18 17
14 0 15 2 2 10 -18 12 -31 12 -48 2z"/>
<path d="M416 1179 c16 -15 28 -19 44 -14 28 9 16 20 -30 29 l-35 6 21 -21z"/>
<path d="M380 1173 c0 -5 10 -19 23 -31 19 -18 35 -22 85 -22 35 0 62 4 62 10
0 6 -9 10 -19 10 -11 0 -23 5 -27 11 -5 8 -10 6 -16 -5 -11 -20 -53 -12 -85
17 -13 11 -23 16 -23 10z"/>
<path d="M660 1151 c0 -9 -8 -12 -25 -9 -29 6 -38 -2 -24 -22 8 -13 10 -13 19
0 7 12 11 13 22 2 11 -11 10 -16 -5 -26 -17 -13 -17 -14 2 -19 10 -2 25 -1 32
4 12 7 12 9 0 9 -9 0 -11 7 -8 23 4 12 2 29 -3 37 -8 12 -10 12 -10 1z"/>
<path d="M1577 1563 c-4 -3 0 -11 9 -18 14 -10 13 -13 -10 -28 -14 -10 -26
-23 -26 -29 0 -7 17 5 38 25 23 22 48 37 62 37 20 0 22 2 10 10 -17 11 -73 13
-83 3z"/>
<path d="M1492 1477 c-24 -25 -30 -46 -9 -29 6 5 22 12 34 14 19 3 20 5 9 20
-12 16 -14 16 -34 -5z"/>
<path d="M2241 1335 c-16 -14 -39 -25 -52 -26 -13 0 -18 -3 -11 -6 6 -2 12
-12 12 -21 0 -11 9 -7 33 16 18 18 40 32 49 32 23 0 32 17 13 24 -8 3 -28 -6
-44 -19z"/>
<path d="M2141 1097 c-9 -11 -8 -17 3 -26 11 -9 15 -8 20 5 9 23 -8 38 -23 21z"/>
<path d="M2040 1091 c0 -12 21 -19 43 -13 28 7 20 22 -13 22 -16 0 -30 -4 -30
-9z"/>
<path d="M2110 1067 c0 -7 20 -33 45 -57 25 -24 45 -40 45 -36 0 5 -20 31 -45
57 -25 26 -45 43 -45 36z"/>
<path d="M1814 950 c-12 -12 -37 -22 -60 -24 -21 -2 -43 -4 -47 -5 -5 -1 -5
-5 -2 -11 11 -17 83 -6 108 18 15 14 36 22 60 22 20 0 37 5 37 10 0 19 -75 11
-96 -10z"/>
<path d="M1655 870 c44 -45 54 -50 93 -50 41 0 83 23 68 37 -3 4 -12 1 -18 -5
-7 -7 -29 -12 -50 -12 -31 0 -47 8 -82 40 -62 57 -70 50 -11 -10z"/>
<path d="M1280 790 c-10 -7 6 -10 54 -10 58 0 73 -4 98 -25 21 -18 41 -25 71
-25 34 0 48 -6 79 -37 51 -50 48 -34 -3 22 -38 41 -46 45 -89 45 -34 0 -52 5
-65 20 -14 16 -31 20 -74 20 -31 0 -63 -5 -71 -10z"/>
<path d="M1480 1983 c0 -6 38 -17 84 -26 269 -53 499 -242 601 -494 26 -62 53
-87 41 -37 -23 88 -144 274 -228 349 -93 82 -226 156 -339 188 -73 21 -159 31
-159 20z"/>
<path d="M2100 632 c0 -4 -14 -23 -31 -41 -38 -42 -29 -54 12 -15 41 39 55 64
34 64 -8 0 -15 -3 -15 -8z"/>
<path d="M1947 474 c-31 -25 -57 -50 -57 -55 0 -16 29 4 87 59 52 50 35 47
-30 -4z"/>
<path d="M1830 396 c-6 -8 -28 -20 -48 -27 -20 -6 -41 -15 -47 -19 -5 -3 -38
-15 -72 -25 -63 -18 -83 -35 -40 -35 12 0 38 6 57 13 51 18 170 86 170 97 0
14 -6 12 -20 -4z"/>
</g>
</svg>
